<svg xmlns="http://www.w3.org/2000/svg" width="186.51" height="35" viewBox="0 0 186.51 35"><rect class="svg__rect" x="0" y="0" width="108.68" height="35" fill="#31C4F3"/><rect class="svg__rect" x="106.68" y="0" width="79.82999999999998" height="35" fill="#EA4560"/><path class="svg__text" d="M15.60 22L13.63 13.47L15.10 13.47L16.43 19.88L18.06 13.47L19.30 13.47L20.91 19.89L22.22 13.47L23.69 13.47L21.72 22L20.31 22L18.68 15.77L17.02 22L15.60 22ZM27.49 18.00L27.49 18.00L27.49 17.52Q27.49 16.28 27.94 15.32Q28.38 14.37 29.18 13.86Q29.99 13.35 31.03 13.35Q32.08 13.35 32.88 13.85Q33.69 14.35 34.13 15.29Q34.57 16.23 34.57 17.48L34.57 17.48L34.57 17.96Q34.57 19.21 34.14 20.16Q33.71 21.10 32.90 21.61Q32.09 22.12 31.05 22.12L31.05 22.12Q30.01 22.12 29.20 21.61Q28.39 21.10 27.94 20.17Q27.50 19.23 27.49 18.00ZM28.98 17.46L28.98 17.96Q28.98 19.36 29.52 20.13Q30.07 20.90 31.05 20.90L31.05 20.90Q32.03 20.90 32.56 20.15Q33.09 19.40 33.09 17.96L33.09 17.96L33.09 17.51Q33.09 16.09 32.55 15.34Q32.02 14.58 31.03 14.58L31.03 14.58Q30.07 14.58 29.53 15.33Q28.99 16.09 28.98 17.46L28.98 17.46ZM40.52 22L39.04 22L39.04 13.47L42.04 13.47Q43.51 13.47 44.32 14.13Q45.12 14.79 45.12 16.05L45.12 16.05Q45.12 16.90 44.71 17.48Q44.29 18.06 43.56 18.37L43.56 18.37L45.47 21.92L45.47 22L43.88 22L42.17 18.71L40.52 18.71L40.52 22ZM40.52 14.66L40.52 17.52L42.04 17.52Q42.79 17.52 43.22 17.15Q43.64 16.77 43.64 16.11L43.64 16.11Q43.64 15.43 43.25 15.05Q42.86 14.68 42.08 14.66L42.08 14.66L40.52 14.66ZM51.00 22L49.51 22L49.51 13.47L51.00 13.47L51.00 17.47L51.82 16.46L54.31 13.47L56.11 13.47L52.94 17.25L56.29 22L54.53 22L51.96 18.31L51.00 19.34L51.00 22ZM59.63 19.42L59.63 19.42L61.12 19.42Q61.12 20.15 61.60 20.55Q62.08 20.95 62.97 20.95L62.97 20.95Q63.75 20.95 64.14 20.63Q64.53 20.32 64.53 19.80L64.53 19.80Q64.53 19.24 64.13 18.94Q63.73 18.63 62.70 18.32Q61.67 18.01 61.06 17.63L61.06 17.63Q59.90 16.90 59.90 15.72L59.90 15.72Q59.90 14.69 60.74 14.02Q61.58 13.35 62.92 13.35L62.92 13.35Q63.81 13.35 64.51 13.68Q65.21 14.01 65.60 14.61Q66.00 15.22 66.00 15.96L66.00 15.96L64.53 15.96Q64.53 15.29 64.11 14.91Q63.69 14.54 62.91 14.54L62.91 14.54Q62.18 14.54 61.78 14.85Q61.38 15.16 61.38 15.71L61.38 15.71Q61.38 16.18 61.81 16.50Q62.25 16.81 63.24 17.10Q64.24 17.40 64.84 17.78Q65.45 18.16 65.73 18.65Q66.01 19.13 66.01 19.79L66.01 19.79Q66.01 20.86 65.19 21.49Q64.37 22.12 62.97 22.12L62.97 22.12Q62.05 22.12 61.27 21.77Q60.49 21.43 60.06 20.83Q59.63 20.22 59.63 19.42ZM76.00 18.00L76.00 18.00L76.00 17.52Q76.00 16.28 76.45 15.32Q76.89 14.37 77.69 13.86Q78.50 13.35 79.54 13.35Q80.59 13.35 81.39 13.85Q82.20 14.35 82.64 15.29Q83.08 16.23 83.08 17.48L83.08 17.48L83.08 17.96Q83.08 19.21 82.65 20.16Q82.22 21.10 81.41 21.61Q80.60 22.12 79.56 22.12L79.56 22.12Q78.52 22.12 77.71 21.61Q76.89 21.10 76.45 20.17Q76.01 19.23 76.00 18.00ZM77.49 17.46L77.49 17.96Q77.49 19.36 78.03 20.13Q78.58 20.90 79.56 20.90L79.56 20.90Q80.54 20.90 81.07 20.15Q81.60 19.40 81.60 17.96L81.60 17.96L81.60 17.51Q81.60 16.09 81.06 15.34Q80.53 14.58 79.54 14.58L79.54 14.58Q78.58 14.58 78.04 15.33Q77.50 16.09 77.49 17.46L77.49 17.46ZM89.03 22L87.55 22L87.55 13.47L89.03 13.47L92.84 19.54L92.84 13.47L94.31 13.47L94.31 22L92.83 22L89.03 15.95L89.03 22Z" fill="#FFFFFF"/><path class="svg__text" d="M123.07 22L120.87 22L120.87 13.60L122.82 13.60L125.78 18.45L128.66 13.60L130.61 13.60L130.64 22L128.46 22L128.43 17.55L126.27 21.17L125.22 21.17L123.07 17.67L123.07 22ZM137.92 18.95L134.72 13.60L137.23 13.60L139.22 16.94L141.21 13.60L143.51 13.60L140.30 18.99L140.30 22L137.92 22L137.92 18.95ZM156.95 22L154.57 22L154.57 13.60L158.41 13.60Q159.55 13.60 160.39 13.98Q161.23 14.35 161.69 15.06Q162.15 15.76 162.15 16.71L162.15 16.71Q162.15 17.66 161.69 18.35Q161.23 19.05 160.39 19.42Q159.55 19.80 158.41 19.80L158.41 19.80L156.95 19.80L156.95 22ZM156.95 15.47L156.95 17.93L158.27 17.93Q159.00 17.93 159.37 17.61Q159.74 17.29 159.74 16.71L159.74 16.71Q159.74 16.12 159.37 15.80Q159.00 15.47 158.27 15.47L158.27 15.47L156.95 15.47ZM166.47 17.80L166.47 17.80Q166.47 16.54 167.07 15.54Q167.67 14.55 168.72 13.99Q169.77 13.43 171.09 13.43L171.09 13.43Q172.24 13.43 173.17 13.84Q174.09 14.25 174.70 15.02L174.70 15.02L173.19 16.39Q172.38 15.40 171.21 15.40L171.21 15.40Q170.53 15.40 169.99 15.70Q169.46 16 169.16 16.54Q168.87 17.09 168.87 17.80L168.87 17.80Q168.87 18.51 169.16 19.05Q169.46 19.60 169.99 19.90Q170.53 20.20 171.21 20.20L171.21 20.20Q172.38 20.20 173.19 19.22L173.19 19.22L174.70 20.58Q174.09 21.35 173.17 21.76Q172.24 22.17 171.09 22.17L171.09 22.17Q169.77 22.17 168.72 21.61Q167.67 21.05 167.07 20.05Q166.47 19.06 166.47 17.80Z" fill="#FFFFFF" x="119.68"/></svg>